<svg width="128" height="128" viewBox="0 0 128 128" fill="none" xmlns="http://www.w3.org/2000/svg">
<rect x="10" y="10" width="108" height="108" rx="54" fill="#5865F2"/>
<path d="M88.5662 42.3918C84.0814 40.359 79.2722 38.8614 74.2438 38.0036C74.1522 37.987 74.0608 38.0284 74.0136 38.1112C73.3951 39.1978 72.71 40.6155 72.2302 41.7298C66.8219 40.9299 61.4413 40.9299 56.1439 41.7298C55.664 40.5907 54.954 39.1978 54.3328 38.1112C54.2856 38.0312 54.1941 37.9898 54.1025 38.0036C49.0769 38.8586 44.2677 40.3563 39.7802 42.3918C39.7413 42.4083 39.708 42.4359 39.6859 42.4717C30.5638 55.9341 28.0649 69.0655 29.2908 82.0341C29.2963 82.0976 29.3324 82.1583 29.3823 82.1968C35.4008 86.5629 41.2308 89.2135 46.9525 90.9703C47.044 90.9979 47.141 90.9649 47.1993 90.8904C48.5528 89.0646 49.7593 87.1394 50.7937 85.1149C50.8548 84.9963 50.7965 84.8556 50.6717 84.8087C48.758 84.0916 46.9358 83.2173 45.1829 82.2244C45.0443 82.1445 45.0332 81.9486 45.1607 81.8548C45.5296 81.5817 45.8986 81.2976 46.2508 81.0108C46.3145 80.9584 46.4033 80.9474 46.4782 80.9805C57.9938 86.174 70.4607 86.174 81.8403 80.9805C81.9153 80.9446 82.0041 80.9557 82.0706 81.0081C82.4229 81.2949 82.7917 81.5817 83.1634 81.8548C83.2909 81.9486 83.2826 82.1445 83.144 82.2244C81.3911 83.2366 79.5689 84.0916 77.6524 84.806C77.5276 84.8529 77.4721 84.9963 77.5332 85.1149C78.5898 87.1366 79.7963 89.0617 81.1248 90.8876C81.1803 90.9649 81.2801 90.9979 81.3717 90.9703C87.1211 89.2135 92.951 86.5629 98.9695 82.1968C99.0223 82.1583 99.0556 82.1003 99.0611 82.0369C100.528 67.0437 96.6037 54.02 88.6576 42.4745C88.6382 42.4359 88.605 42.4083 88.5662 42.3918ZM52.5134 74.1376C49.0464 74.1376 46.1897 70.9934 46.1897 67.132C46.1897 63.2706 48.991 60.1264 52.5134 60.1264C56.0634 60.1264 58.8924 63.2982 58.8369 67.132C58.8369 70.9934 56.0357 74.1376 52.5134 74.1376ZM75.894 74.1376C72.4271 74.1376 69.5704 70.9934 69.5704 67.132C69.5704 63.2706 72.3716 60.1264 75.894 60.1264C79.4441 60.1264 82.273 63.2982 82.2176 67.132C82.2176 70.9934 79.4441 74.1376 75.894 74.1376Z" fill="white"/>
</svg>
