<svg width="128" height="128" viewBox="0 0 128 128" fill="none" xmlns="http://www.w3.org/2000/svg">
<rect x="10" y="10" width="108" height="108" rx="54" fill="#1D9BF0"/>
<path d="M54.4672 91.98C79.0539 91.98 92.5074 71.591 92.5074 53.9397C92.5074 53.3661 92.5074 52.7925 92.4814 52.2189C95.0886 50.3417 97.357 47.9691 99.156 45.2836C96.7573 46.3525 94.1761 47.0565 91.4645 47.3955C94.2282 45.7529 96.3401 43.1195 97.357 39.9908C94.7758 41.5291 91.9078 42.6241 88.8572 43.2238C86.4064 40.6165 82.9387 39 79.106 39C71.7274 39 65.7306 44.9968 65.7306 52.3754C65.7306 53.4183 65.861 54.4351 66.0696 55.4259C54.9626 54.8784 45.107 49.5334 38.5106 41.4508C37.3634 43.4324 36.7116 45.7268 36.7116 48.1776C36.7116 52.8186 39.0842 56.912 42.6562 59.3107C40.4661 59.2325 38.4063 58.6328 36.6073 57.6421C36.6073 57.6942 36.6073 57.7464 36.6073 57.8246C36.6073 64.2906 41.2222 69.7138 47.3232 70.9392C46.2021 71.2521 45.0288 71.4085 43.8034 71.4085C42.943 71.4085 42.1087 71.3303 41.3004 71.1739C42.9951 76.4927 47.949 80.3515 53.7893 80.4558C49.2005 84.0539 43.4384 86.1918 37.1809 86.1918C36.1119 86.1918 35.0429 86.1397 34 86.0093C39.8925 89.7638 46.9321 91.98 54.4672 91.98Z" fill="white"/>
</svg>
