<svg width="128" height="128" viewBox="0 0 128 128" fill="none" xmlns="http://www.w3.org/2000/svg">
<rect x="10" y="10" width="108" height="108" rx="54" fill="white"/>
<path d="M99.7403 45.3046C98.8572 42.039 96.3097 39.4818 93.0441 38.6084C88.6576 36.9149 46.1705 36.0852 33.8456 38.6569C30.5799 39.54 28.0228 42.0875 27.1493 45.3531C25.1696 54.0388 25.0192 72.8174 27.1979 81.6972C28.081 84.9628 30.6285 87.52 33.8941 88.3934C42.5798 90.3925 83.8732 90.674 93.0926 88.3934C96.3583 87.5103 98.9154 84.9628 99.7889 81.6972C101.9 72.2351 102.05 54.6211 99.7403 45.3046Z" fill="#FF0000"/>
<path d="M75.9639 63.501L56.1663 52.1465V74.8554L75.9639 63.501Z" fill="white"/>
</svg>
